<svg width="960" height="480" viewBox="0 0 960 480" xmlns="http://www.w3.org/2000/svg" xmlns:xlink="http://www.w3.org/1999/xlink">
  <defs>
    <pattern id="grid-light" width="24" height="24" patternUnits="userSpaceOnUse">
      <path d="M 24 0 L 0 0 0 24" fill="none" stroke="#e3e8ee" stroke-width="1"/>
    </pattern>
    <filter id="glow-light" x="-60%" y="-60%" width="220%" height="220%">
      <feGaussianBlur stdDeviation="2.6" result="blur"/>
      <feMerge>
        <feMergeNode in="blur"/>
        <feMergeNode in="SourceGraphic"/>
      </feMerge>
    </filter>
    <path id="pulse-path-light-1" d="M 152 210 L 257 210 L 257 118 L 281 118" fill="none"/><path id="pulse-path-light-2" d="M 152 210 L 257 210 L 257 164 L 281 164" fill="none"/><path id="pulse-path-light-3" d="M 152 210 L 257 210 L 257 210 L 281 210" fill="none"/><path id="pulse-path-light-4" d="M 152 210 L 257 210 L 257 256 L 281 256" fill="none"/><path id="pulse-path-light-5" d="M 152 210 L 257 210 L 257 302 L 281 302" fill="none"/><path id="pulse-path-light-6" d="M 152 210 L 527 210 L 527 141 L 551 141" fill="none"/><path id="pulse-path-light-7" d="M 152 210 L 527 210 L 527 187 L 551 187" fill="none"/><path id="pulse-path-light-8" d="M 152 210 L 527 210 L 527 233 L 551 233" fill="none"/><path id="pulse-path-light-9" d="M 152 210 L 527 210 L 527 279 L 551 279" fill="none"/><path id="pulse-path-light-10" d="M 152 210 L 797 210 L 797 118 L 821 118" fill="none"/><path id="pulse-path-light-11" d="M 152 210 L 797 210 L 797 164 L 821 164" fill="none"/><path id="pulse-path-light-12" d="M 152 210 L 797 210 L 797 210 L 821 210" fill="none"/><path id="pulse-path-light-13" d="M 152 210 L 797 210 L 797 256 L 821 256" fill="none"/><path id="pulse-path-light-14" d="M 152 210 L 797 210 L 797 302 L 821 302" fill="none"/>
  </defs>

  <rect width="960" height="480" fill="#f6f8fa"/>
  <rect width="960" height="480" fill="url(#grid-light)"/>

  <!-- title bar -->
  <text x="30" y="34" font-family="'Fira Code', monospace" font-size="15" fill="#1b1f24">
    root@queensknight:~/circuit-pulse$ <tspan fill="#0a8f2e">status --live</tspan>
  </text>
  <text x="930" y="34" text-anchor="end" font-family="'Fira Code', monospace" font-size="11.5" fill="#57606a">
    &gt; total_commits: 581   current_streak: 0d   longest_streak: 33d   active_days: 51
  </text>
  <path d="M 30 44 L 930 44" stroke="#c7d0dc" stroke-width="1" opacity="0.6"/>

  <!-- circuit -->
  <g filter="url(#glow-light)">
    <path d="M 152 210 L 797 210" stroke="#c7d0dc" stroke-width="2" fill="none" opacity="0.9"/><path d="M 257 118 L 257 302" stroke="#c7d0dc" stroke-width="2" fill="none" opacity="0.9"/><circle cx="257" cy="210" r="3" fill="#0a8f2e" opacity="0.85"/><path d="M 257 118 L 281 118" stroke="#c7d0dc" stroke-width="2" fill="none" opacity="0.9"/><circle cx="257" cy="118" r="2.5" fill="#0a8f2e" opacity="0.7"/><path d="M 257 164 L 281 164" stroke="#c7d0dc" stroke-width="2" fill="none" opacity="0.9"/><circle cx="257" cy="164" r="2.5" fill="#0a8f2e" opacity="0.7"/><path d="M 257 210 L 281 210" stroke="#c7d0dc" stroke-width="2" fill="none" opacity="0.9"/><circle cx="257" cy="210" r="2.5" fill="#0a8f2e" opacity="0.7"/><path d="M 257 256 L 281 256" stroke="#c7d0dc" stroke-width="2" fill="none" opacity="0.9"/><circle cx="257" cy="256" r="2.5" fill="#0a8f2e" opacity="0.7"/><path d="M 257 302 L 281 302" stroke="#c7d0dc" stroke-width="2" fill="none" opacity="0.9"/><circle cx="257" cy="302" r="2.5" fill="#0a8f2e" opacity="0.7"/><path d="M 527 141 L 527 279" stroke="#c7d0dc" stroke-width="2" fill="none" opacity="0.9"/><circle cx="527" cy="210" r="3" fill="#0089a8" opacity="0.85"/><path d="M 527 141 L 551 141" stroke="#c7d0dc" stroke-width="2" fill="none" opacity="0.9"/><circle cx="527" cy="141" r="2.5" fill="#0089a8" opacity="0.7"/><path d="M 527 187 L 551 187" stroke="#c7d0dc" stroke-width="2" fill="none" opacity="0.9"/><circle cx="527" cy="187" r="2.5" fill="#0089a8" opacity="0.7"/><path d="M 527 233 L 551 233" stroke="#c7d0dc" stroke-width="2" fill="none" opacity="0.9"/><circle cx="527" cy="233" r="2.5" fill="#0089a8" opacity="0.7"/><path d="M 527 279 L 551 279" stroke="#c7d0dc" stroke-width="2" fill="none" opacity="0.9"/><circle cx="527" cy="279" r="2.5" fill="#0089a8" opacity="0.7"/><path d="M 797 118 L 797 302" stroke="#c7d0dc" stroke-width="2" fill="none" opacity="0.9"/><circle cx="797" cy="210" r="3" fill="#8b16c9" opacity="0.85"/><path d="M 797 118 L 821 118" stroke="#c7d0dc" stroke-width="2" fill="none" opacity="0.9"/><circle cx="797" cy="118" r="2.5" fill="#8b16c9" opacity="0.7"/><path d="M 797 164 L 821 164" stroke="#c7d0dc" stroke-width="2" fill="none" opacity="0.9"/><circle cx="797" cy="164" r="2.5" fill="#8b16c9" opacity="0.7"/><path d="M 797 210 L 821 210" stroke="#c7d0dc" stroke-width="2" fill="none" opacity="0.9"/><circle cx="797" cy="210" r="2.5" fill="#8b16c9" opacity="0.7"/><path d="M 797 256 L 821 256" stroke="#c7d0dc" stroke-width="2" fill="none" opacity="0.9"/><circle cx="797" cy="256" r="2.5" fill="#8b16c9" opacity="0.7"/><path d="M 797 302 L 821 302" stroke="#c7d0dc" stroke-width="2" fill="none" opacity="0.9"/><circle cx="797" cy="302" r="2.5" fill="#8b16c9" opacity="0.7"/>
  </g>
  <g>
    <rect x="60" y="164" width="92" height="92" rx="10"
          fill="#ffffff" stroke="#a3760a" stroke-width="1.6"/>
    <text x="106" y="206" text-anchor="middle"
          font-family="'Fira Code', monospace" font-size="19" font-weight="700" fill="#a3760a">QK</text>
    <text x="106" y="226" text-anchor="middle"
          font-family="'Fira Code', monospace" font-size="9.5" letter-spacing="1.5" fill="#57606a">CORE</text>
  </g>
  <text x="281" y="98"
      font-family="'Fira Code', monospace" font-size="11" letter-spacing="2"
      fill="#0a8f2e" opacity="0.85">LANGUAGES</text><text x="551" y="121"
      font-family="'Fira Code', monospace" font-size="11" letter-spacing="2"
      fill="#0089a8" opacity="0.85">STACK</text><text x="821" y="98"
      font-family="'Fira Code', monospace" font-size="11" letter-spacing="2"
      fill="#8b16c9" opacity="0.85">TOOLS</text>
  
        <g>
          <rect x="281" y="104" width="118" height="28" rx="7"
                fill="#ffffff" stroke="#0a8f2e" stroke-width="1.3" opacity="0.98"/>
          <circle cx="294" cy="118" r="3.2" fill="#0a8f2e"/>
          <text x="304" y="122" font-family="'Fira Code', monospace" font-size="12"
                fill="#1b1f24">C++</text>
        </g>
        <g>
          <rect x="281" y="150" width="118" height="28" rx="7"
                fill="#ffffff" stroke="#0a8f2e" stroke-width="1.3" opacity="0.98"/>
          <circle cx="294" cy="164" r="3.2" fill="#0a8f2e"/>
          <text x="304" y="168" font-family="'Fira Code', monospace" font-size="12"
                fill="#1b1f24">JavaScript</text>
        </g>
        <g>
          <rect x="281" y="196" width="118" height="28" rx="7"
                fill="#ffffff" stroke="#0a8f2e" stroke-width="1.3" opacity="0.98"/>
          <circle cx="294" cy="210" r="3.2" fill="#0a8f2e"/>
          <text x="304" y="214" font-family="'Fira Code', monospace" font-size="12"
                fill="#1b1f24">Python</text>
        </g>
        <g>
          <rect x="281" y="242" width="118" height="28" rx="7"
                fill="#ffffff" stroke="#0a8f2e" stroke-width="1.3" opacity="0.98"/>
          <circle cx="294" cy="256" r="3.2" fill="#0a8f2e"/>
          <text x="304" y="260" font-family="'Fira Code', monospace" font-size="12"
                fill="#1b1f24">HTML5</text>
        </g>
        <g>
          <rect x="281" y="288" width="118" height="28" rx="7"
                fill="#ffffff" stroke="#0a8f2e" stroke-width="1.3" opacity="0.98"/>
          <circle cx="294" cy="302" r="3.2" fill="#0a8f2e"/>
          <text x="304" y="306" font-family="'Fira Code', monospace" font-size="12"
                fill="#1b1f24">CSS3</text>
        </g>
        <g>
          <rect x="551" y="127" width="118" height="28" rx="7"
                fill="#ffffff" stroke="#0089a8" stroke-width="1.3" opacity="0.98"/>
          <circle cx="564" cy="141" r="3.2" fill="#0089a8"/>
          <text x="574" y="145" font-family="'Fira Code', monospace" font-size="12"
                fill="#1b1f24">React</text>
        </g>
        <g>
          <rect x="551" y="173" width="118" height="28" rx="7"
                fill="#ffffff" stroke="#0089a8" stroke-width="1.3" opacity="0.98"/>
          <circle cx="564" cy="187" r="3.2" fill="#0089a8"/>
          <text x="574" y="191" font-family="'Fira Code', monospace" font-size="12"
                fill="#1b1f24">Node.js</text>
        </g>
        <g>
          <rect x="551" y="219" width="118" height="28" rx="7"
                fill="#ffffff" stroke="#0089a8" stroke-width="1.3" opacity="0.98"/>
          <circle cx="564" cy="233" r="3.2" fill="#0089a8"/>
          <text x="574" y="237" font-family="'Fira Code', monospace" font-size="12"
                fill="#1b1f24">Express</text>
        </g>
        <g>
          <rect x="551" y="265" width="118" height="28" rx="7"
                fill="#ffffff" stroke="#0089a8" stroke-width="1.3" opacity="0.98"/>
          <circle cx="564" cy="279" r="3.2" fill="#0089a8"/>
          <text x="574" y="283" font-family="'Fira Code', monospace" font-size="12"
                fill="#1b1f24">MongoDB</text>
        </g>
        <g>
          <rect x="821" y="104" width="118" height="28" rx="7"
                fill="#ffffff" stroke="#8b16c9" stroke-width="1.3" opacity="0.98"/>
          <circle cx="834" cy="118" r="3.2" fill="#8b16c9"/>
          <text x="844" y="122" font-family="'Fira Code', monospace" font-size="12"
                fill="#1b1f24">Git</text>
        </g>
        <g>
          <rect x="821" y="150" width="118" height="28" rx="7"
                fill="#ffffff" stroke="#8b16c9" stroke-width="1.3" opacity="0.98"/>
          <circle cx="834" cy="164" r="3.2" fill="#8b16c9"/>
          <text x="844" y="168" font-family="'Fira Code', monospace" font-size="12"
                fill="#1b1f24">GitHub</text>
        </g>
        <g>
          <rect x="821" y="196" width="118" height="28" rx="7"
                fill="#ffffff" stroke="#8b16c9" stroke-width="1.3" opacity="0.98"/>
          <circle cx="834" cy="210" r="3.2" fill="#8b16c9"/>
          <text x="844" y="214" font-family="'Fira Code', monospace" font-size="12"
                fill="#1b1f24">VS Code</text>
        </g>
        <g>
          <rect x="821" y="242" width="118" height="28" rx="7"
                fill="#ffffff" stroke="#8b16c9" stroke-width="1.3" opacity="0.98"/>
          <circle cx="834" cy="256" r="3.2" fill="#8b16c9"/>
          <text x="844" y="260" font-family="'Fira Code', monospace" font-size="12"
                fill="#1b1f24">Notion</text>
        </g>
        <g>
          <rect x="821" y="288" width="118" height="28" rx="7"
                fill="#ffffff" stroke="#8b16c9" stroke-width="1.3" opacity="0.98"/>
          <circle cx="834" cy="302" r="3.2" fill="#8b16c9"/>
          <text x="844" y="306" font-family="'Fira Code', monospace" font-size="12"
                fill="#1b1f24">Linux</text>
        </g>
  <g filter="url(#glow-light)">
    
        <circle r="3.4" fill="#0a8f2e">
          <animateMotion dur="2.52s" begin="0.00s" repeatCount="indefinite" rotate="auto">
            <mpath href="#pulse-path-light-1"/>
          </animateMotion>
          <animate attributeName="opacity" values="0;1;1;0" keyTimes="0;0.08;0.85;1"
                   dur="2.52s" begin="0.00s" repeatCount="indefinite"/>
        </circle>
        <circle r="3.4" fill="#0a8f2e">
          <animateMotion dur="2.52s" begin="0.18s" repeatCount="indefinite" rotate="auto">
            <mpath href="#pulse-path-light-2"/>
          </animateMotion>
          <animate attributeName="opacity" values="0;1;1;0" keyTimes="0;0.08;0.85;1"
                   dur="2.52s" begin="0.18s" repeatCount="indefinite"/>
        </circle>
        <circle r="3.4" fill="#0a8f2e">
          <animateMotion dur="2.52s" begin="0.36s" repeatCount="indefinite" rotate="auto">
            <mpath href="#pulse-path-light-3"/>
          </animateMotion>
          <animate attributeName="opacity" values="0;1;1;0" keyTimes="0;0.08;0.85;1"
                   dur="2.52s" begin="0.36s" repeatCount="indefinite"/>
        </circle>
        <circle r="3.4" fill="#0a8f2e">
          <animateMotion dur="2.52s" begin="0.54s" repeatCount="indefinite" rotate="auto">
            <mpath href="#pulse-path-light-4"/>
          </animateMotion>
          <animate attributeName="opacity" values="0;1;1;0" keyTimes="0;0.08;0.85;1"
                   dur="2.52s" begin="0.54s" repeatCount="indefinite"/>
        </circle>
        <circle r="3.4" fill="#0a8f2e">
          <animateMotion dur="2.52s" begin="0.72s" repeatCount="indefinite" rotate="auto">
            <mpath href="#pulse-path-light-5"/>
          </animateMotion>
          <animate attributeName="opacity" values="0;1;1;0" keyTimes="0;0.08;0.85;1"
                   dur="2.52s" begin="0.72s" repeatCount="indefinite"/>
        </circle>
        <circle r="3.4" fill="#0089a8">
          <animateMotion dur="2.52s" begin="0.72s" repeatCount="indefinite" rotate="auto">
            <mpath href="#pulse-path-light-6"/>
          </animateMotion>
          <animate attributeName="opacity" values="0;1;1;0" keyTimes="0;0.08;0.85;1"
                   dur="2.52s" begin="0.72s" repeatCount="indefinite"/>
        </circle>
        <circle r="3.4" fill="#0089a8">
          <animateMotion dur="2.52s" begin="0.90s" repeatCount="indefinite" rotate="auto">
            <mpath href="#pulse-path-light-7"/>
          </animateMotion>
          <animate attributeName="opacity" values="0;1;1;0" keyTimes="0;0.08;0.85;1"
                   dur="2.52s" begin="0.90s" repeatCount="indefinite"/>
        </circle>
        <circle r="3.4" fill="#0089a8">
          <animateMotion dur="2.52s" begin="1.08s" repeatCount="indefinite" rotate="auto">
            <mpath href="#pulse-path-light-8"/>
          </animateMotion>
          <animate attributeName="opacity" values="0;1;1;0" keyTimes="0;0.08;0.85;1"
                   dur="2.52s" begin="1.08s" repeatCount="indefinite"/>
        </circle>
        <circle r="3.4" fill="#0089a8">
          <animateMotion dur="2.52s" begin="1.26s" repeatCount="indefinite" rotate="auto">
            <mpath href="#pulse-path-light-9"/>
          </animateMotion>
          <animate attributeName="opacity" values="0;1;1;0" keyTimes="0;0.08;0.85;1"
                   dur="2.52s" begin="1.26s" repeatCount="indefinite"/>
        </circle>
        <circle r="3.4" fill="#8b16c9">
          <animateMotion dur="2.52s" begin="1.80s" repeatCount="indefinite" rotate="auto">
            <mpath href="#pulse-path-light-10"/>
          </animateMotion>
          <animate attributeName="opacity" values="0;1;1;0" keyTimes="0;0.08;0.85;1"
                   dur="2.52s" begin="1.80s" repeatCount="indefinite"/>
        </circle>
        <circle r="3.4" fill="#8b16c9">
          <animateMotion dur="2.52s" begin="1.98s" repeatCount="indefinite" rotate="auto">
            <mpath href="#pulse-path-light-11"/>
          </animateMotion>
          <animate attributeName="opacity" values="0;1;1;0" keyTimes="0;0.08;0.85;1"
                   dur="2.52s" begin="1.98s" repeatCount="indefinite"/>
        </circle>
        <circle r="3.4" fill="#8b16c9">
          <animateMotion dur="2.52s" begin="2.16s" repeatCount="indefinite" rotate="auto">
            <mpath href="#pulse-path-light-12"/>
          </animateMotion>
          <animate attributeName="opacity" values="0;1;1;0" keyTimes="0;0.08;0.85;1"
                   dur="2.52s" begin="2.16s" repeatCount="indefinite"/>
        </circle>
        <circle r="3.4" fill="#8b16c9">
          <animateMotion dur="2.52s" begin="2.34s" repeatCount="indefinite" rotate="auto">
            <mpath href="#pulse-path-light-13"/>
          </animateMotion>
          <animate attributeName="opacity" values="0;1;1;0" keyTimes="0;0.08;0.85;1"
                   dur="2.52s" begin="2.34s" repeatCount="indefinite"/>
        </circle>
        <circle r="3.4" fill="#8b16c9">
          <animateMotion dur="2.52s" begin="2.52s" repeatCount="indefinite" rotate="auto">
            <mpath href="#pulse-path-light-14"/>
          </animateMotion>
          <animate attributeName="opacity" values="0;1;1;0" keyTimes="0;0.08;0.85;1"
                   dur="2.52s" begin="2.52s" repeatCount="indefinite"/>
        </circle>
  </g>

  <!-- weekly activity spectrum -->
  <text x="60" y="366" font-family="'Fira Code', monospace" font-size="11"
        letter-spacing="2" fill="#57606a">CONTRIB_SPECTRUM :: 53w</text>
  <path d="M 60 424 L 900 424" stroke="#c7d0dc" stroke-width="1"/>
  <rect x="60.0" y="418.0" width="13.8" height="2.0" rx="1.5" fill="#0a8f2e" opacity="0.28"/><rect x="75.8" y="418.0" width="13.8" height="2.0" rx="1.5" fill="#0a8f2e" opacity="0.28"/><rect x="91.7" y="418.0" width="13.8" height="2.0" rx="1.5" fill="#0a8f2e" opacity="0.28"/><rect x="107.5" y="418.0" width="13.8" height="2.0" rx="1.5" fill="#0a8f2e" opacity="0.28"/><rect x="123.4" y="418.0" width="13.8" height="2.0" rx="1.5" fill="#0a8f2e" opacity="0.28"/><rect x="139.2" y="418.0" width="13.8" height="2.0" rx="1.5" fill="#0a8f2e" opacity="0.28"/><rect x="155.1" y="418.0" width="13.8" height="2.0" rx="1.5" fill="#0a8f2e" opacity="0.28"/><rect x="170.9" y="418.0" width="13.8" height="2.0" rx="1.5" fill="#0a8f2e" opacity="0.28"/><rect x="186.8" y="418.0" width="13.8" height="2.0" rx="1.5" fill="#0a8f2e" opacity="0.28"/><rect x="202.6" y="418.0" width="13.8" height="2.0" rx="1.5" fill="#0a8f2e" opacity="0.28"/><rect x="218.5" y="418.0" width="13.8" height="2.0" rx="1.5" fill="#0a8f2e" opacity="0.28"/><rect x="234.3" y="418.0" width="13.8" height="2.0" rx="1.5" fill="#0a8f2e" opacity="0.28"/><rect x="250.2" y="418.0" width="13.8" height="2.0" rx="1.5" fill="#0a8f2e" opacity="0.28"/><rect x="266.0" y="418.0" width="13.8" height="2.0" rx="1.5" fill="#0a8f2e" opacity="0.28"/><rect x="281.9" y="418.0" width="13.8" height="2.0" rx="1.5" fill="#0a8f2e" opacity="0.28"/><rect x="297.7" y="418.0" width="13.8" height="2.0" rx="1.5" fill="#0a8f2e" opacity="0.28"/><rect x="313.6" y="418.0" width="13.8" height="2.0" rx="1.5" fill="#0a8f2e" opacity="0.28"/><rect x="329.4" y="418.0" width="13.8" height="2.0" rx="1.5" fill="#0a8f2e" opacity="0.28"/><rect x="345.3" y="418.0" width="13.8" height="2.0" rx="1.5" fill="#0a8f2e" opacity="0.28"/><rect x="361.1" y="418.0" width="13.8" height="2.0" rx="1.5" fill="#0a8f2e" opacity="0.28"/><rect x="377.0" y="418.0" width="13.8" height="2.0" rx="1.5" fill="#0a8f2e" opacity="0.28"/><rect x="392.8" y="418.0" width="13.8" height="2.0" rx="1.5" fill="#0a8f2e" opacity="0.28"/><rect x="408.7" y="418.0" width="13.8" height="2.0" rx="1.5" fill="#0a8f2e" opacity="0.28"/><rect x="424.5" y="418.0" width="13.8" height="2.0" rx="1.5" fill="#0a8f2e" opacity="0.28"/><rect x="440.4" y="418.0" width="13.8" height="2.0" rx="1.5" fill="#0a8f2e" opacity="0.28"/><rect x="456.2" y="418.0" width="13.8" height="2.0" rx="1.5" fill="#0a8f2e" opacity="0.28"/><rect x="472.1" y="418.0" width="13.8" height="2.0" rx="1.5" fill="#0a8f2e" opacity="0.28"/><rect x="487.9" y="418.0" width="13.8" height="2.0" rx="1.5" fill="#0a8f2e" opacity="0.28"/><rect x="503.8" y="418.0" width="13.8" height="2.0" rx="1.5" fill="#0a8f2e" opacity="0.28"/><rect x="519.6" y="418.0" width="13.8" height="2.0" rx="1.5" fill="#0a8f2e" opacity="0.28"/><rect x="535.5" y="418.0" width="13.8" height="2.0" rx="1.5" fill="#0a8f2e" opacity="0.28"/><rect x="551.3" y="418.0" width="13.8" height="2.0" rx="1.5" fill="#0a8f2e" opacity="0.28"/><rect x="567.2" y="418.0" width="13.8" height="2.0" rx="1.5" fill="#0a8f2e" opacity="0.28"/><rect x="583.0" y="418.0" width="13.8" height="2.0" rx="1.5" fill="#0a8f2e" opacity="0.28"/><rect x="598.9" y="418.0" width="13.8" height="2.0" rx="1.5" fill="#0a8f2e" opacity="0.28"/><rect x="614.7" y="418.0" width="13.8" height="2.0" rx="1.5" fill="#0a8f2e" opacity="0.28"/><rect x="630.6" y="418.0" width="13.8" height="2.0" rx="1.5" fill="#0a8f2e" opacity="0.28"/><rect x="646.4" y="418.0" width="13.8" height="2.0" rx="1.5" fill="#0a8f2e" opacity="0.28"/><rect x="662.3" y="418.0" width="13.8" height="2.0" rx="1.5" fill="#0a8f2e" opacity="0.28"/><rect x="678.1" y="418.0" width="13.8" height="2.0" rx="1.5" fill="#0a8f2e" opacity="0.28"/><rect x="694.0" y="418.0" width="13.8" height="2.0" rx="1.5" fill="#0a8f2e" opacity="0.28"/><rect x="709.8" y="418.0" width="13.8" height="2.0" rx="1.5" fill="#0a8f2e" opacity="0.29"/><rect x="725.7" y="413.7" width="13.8" height="6.3" rx="1.5" fill="#0a8f2e" opacity="0.39"/><rect x="741.5" y="418.0" width="13.8" height="2.0" rx="1.5" fill="#0a8f2e" opacity="0.29"/><rect x="757.4" y="393.9" width="13.8" height="26.1" rx="1.5" fill="#0a8f2e" opacity="0.75"/><rect x="773.2" y="417.4" width="13.8" height="2.6" rx="1.5" fill="#0a8f2e" opacity="0.33"/><rect x="789.1" y="402.1" width="13.8" height="17.9" rx="1.5" fill="#0a8f2e" opacity="0.60"/><rect x="804.9" y="393.2" width="13.8" height="26.8" rx="1.5" fill="#0a8f2e" opacity="0.76"/><rect x="820.8" y="380.0" width="13.8" height="40.0" rx="1.5" fill="#0a8f2e" opacity="1.00"/><rect x="836.6" y="396.5" width="13.8" height="23.5" rx="1.5" fill="#0a8f2e" opacity="0.70"/><rect x="852.5" y="396.9" width="13.8" height="23.1" rx="1.5" fill="#0a8f2e" opacity="0.70"/><rect x="868.3" y="400.2" width="13.8" height="19.8" rx="1.5" fill="#0a8f2e" opacity="0.64"/><rect x="884.2" y="414.7" width="13.8" height="5.3" rx="1.5" fill="#0a8f2e" opacity="0.38"/>
  
    <rect x="60" y="374" width="14" height="52" fill="#0089a8" opacity="0.25">
      <animate attributeName="x" values="60;886;60" dur="9s" repeatCount="indefinite"/>
    </rect>

  <text x="30" y="464" font-family="'Fira Code', monospace" font-size="10.5" fill="#57606a">
    generated on push &amp; every 12h via GitHub Actions — data is live, not decorative
  </text>
</svg>